<?xml version="1.0" encoding="utf-8"?>
<!-- Generator: Adobe Illustrator 21.1.0, SVG Export Plug-In . SVG Version: 6.00 Build 0)  -->
<svg version="1.0" id="Layer_1" xmlns="http://www.w3.org/2000/svg" xmlns:xlink="http://www.w3.org/1999/xlink" x="0px" y="0px"
	 viewBox="0 0 128 128" style="enable-background:new 0 0 128 128;" xml:space="preserve">
<path id="Forma_1" d="M128,40.7v-6.2l0,0c0-0.3-0.1-0.6-0.2-0.9L122.5,20V8.5c0-4.7-3.8-8.5-8.5-8.5H14C9.3,0,5.5,3.8,5.5,8.5V20
	L0.2,33.6C0.1,33.9,0,34.2,0,34.5l0,0v6.2c0,4.1,2,7.9,5.5,10V123h-3c-1.4,0-2.5,1.1-2.5,2.5s1.1,2.5,2.5,2.5h123
	c1.4,0,2.5-1.1,2.5-2.5s-1.1-2.5-2.5-2.5h-3V50.7C126,48.6,128,44.8,128,40.7z M9.7,23H52c1.4,0,2.5-1.1,2.5-2.5S53.4,18,52,18H10.5
	V8.5C10.5,6.6,12.1,5,14,5h100c1.9,0,3.5,1.6,3.5,3.5V18H75.7c-1.4,0-2.5,1.1-2.5,2.5s1.1,2.5,2.5,2.5h42.6l3.5,9H6.2L9.7,23z
	 M102.5,37v3.7c0,4.1-3.3,7-7.8,7s-7.8-2.9-7.8-7V37H102.5z M82,37v3.7c0,4.1-3.3,7-7.8,7s-7.8-2.9-7.8-7V37H82z M61.5,37v3.7
	c0,4.1-3.3,7-7.8,7s-7.8-2.9-7.8-7V37H61.5z M41,37v3.7c0,4.1-3.3,7-7.8,7s-7.8-2.9-7.8-7V37H41z M5,40.7V37h15.5v3.7
	c0,4.1-3.3,7-7.8,7S5,44.8,5,40.7z M61.5,123h-33V66h33V123z M117.5,123h-13v-15.5c0-1.4-1.1-2.5-2.5-2.5s-2.5,1.1-2.5,2.5V123h-33
	V66h33v21.4c0,1.4,1.1,2.5,2.5,2.5s2.5-1.1,2.5-2.5V63.5c0-1.4-1.1-2.5-2.5-2.5H26c-1.4,0-2.5,1.1-2.5,2.5V123h-13V52.6
	c0.7,0.1,1.5,0.2,2.3,0.2c4,0.1,7.7-1.6,10.2-4.7c2.5,3.1,6.3,4.8,10.2,4.7c4,0.1,7.7-1.6,10.2-4.7c2.5,3.1,6.3,4.8,10.2,4.7
	c4,0.1,7.7-1.6,10.2-4.7c4.9,5.7,13.5,6.3,19.1,1.4c0.5-0.4,1-0.9,1.4-1.4c4.9,5.7,13.5,6.3,19.1,1.4c0.5-0.4,1-0.9,1.4-1.4
	c2.5,3.1,6.3,4.8,10.2,4.7c0.8,0,1.5-0.1,2.2-0.2L117.5,123L117.5,123z M115.2,47.7c-4.5,0-7.8-2.9-7.8-7V37H123v3.7
	C123,44.8,119.7,47.7,115.2,47.7z M103.8,94.7c-1-1-2.6-1-3.5,0c-1,1-1,2.6,0,3.5s2.6,1,3.5,0c0.5-0.5,0.7-1.1,0.7-1.8
	C104.5,95.8,104.2,95.2,103.8,94.7z M53.8,80.5c-1-1-2.6-1-3.5,0c0,0,0,0,0,0L34.7,96c-1,1-1,2.6,0,3.5c1,1,2.6,1,3.5,0L53.8,84
	C54.7,83,54.7,81.5,53.8,80.5C53.8,80.5,53.8,80.5,53.8,80.5L53.8,80.5z M56.3,96.7c-1-1-2.6-1-3.5,0c0,0,0,0,0,0l-18,18
	c-1,1-1,2.6,0,3.5c1,1,2.6,1,3.5,0l0,0l18-18C57.2,99.3,57.2,97.7,56.3,96.7C56.3,96.7,56.3,96.7,56.3,96.7L56.3,96.7z M91.5,80.5
	c-1-1-2.6-1-3.5,0L72.5,96c-1,1-1,2.6,0,3.5c1,1,2.5,1,3.5,0L91.5,84C92.5,83,92.5,81.5,91.5,80.5C91.5,80.5,91.5,80.5,91.5,80.5
	L91.5,80.5z M65.8,18.7c-1-1-2.6-1-3.5,0c-1,1-1,2.6,0,3.5c1,1,2.6,1,3.5,0c0.5-0.5,0.7-1.1,0.7-1.8C66.5,19.8,66.2,19.2,65.8,18.7z
	"/>
</svg>
