<?xml version="1.0" encoding="utf-8"?>
<!-- Generator: Adobe Illustrator 21.1.0, SVG Export Plug-In . SVG Version: 6.00 Build 0)  -->
<svg version="1.0" id="Layer_1" xmlns="http://www.w3.org/2000/svg" xmlns:xlink="http://www.w3.org/1999/xlink" x="0px" y="0px"
	 viewBox="0 0 32 32" style="enable-background:new 0 0 32 32;" xml:space="preserve">
<style type="text/css">
	.st0{fill:#8692AC;}
</style>
<path id="Forma_1" class="st0" d="M18.8,16L31.4,3.4c0.8-0.8,0.8-2,0-2.8c-0.8-0.8-2-0.8-2.8,0L16,13.2L3.4,0.6
	c-0.8-0.8-2-0.8-2.8,0s-0.8,2,0,2.8L13.2,16L0.6,28.6c-0.8,0.8-0.8,2,0,2.8c0.8,0.8,2,0.8,2.8,0l0,0L16,18.8l12.6,12.6
	c0.8,0.8,2,0.8,2.8,0c0.8-0.8,0.8-2,0-2.8L18.8,16z"/>
</svg>
