<?xml version="1.0" encoding="utf-8"?>
<!-- Generator: Adobe Illustrator 21.1.0, SVG Export Plug-In . SVG Version: 6.00 Build 0)  -->
<svg version="1.0" id="Layer_1" xmlns="http://www.w3.org/2000/svg" xmlns:xlink="http://www.w3.org/1999/xlink" x="0px" y="0px"
	 viewBox="0 0 128 128" style="enable-background:new 0 0 128 128;" xml:space="preserve">
<path id="Forma_1" d="M100.2,38H64.1c-1.4,0-2.5,1.1-2.5,2.5s1.1,2.5,2.5,2.5h36.1c1.4,0,2.5-1.1,2.5-2.5S101.6,38,100.2,38z
	 M91.4,50.7c-1-1-2.6-1-3.5,0c-1,1-1,2.6,0,3.5c1,1,2.6,1,3.5,0c0.5-0.5,0.7-1.1,0.7-1.8C92.2,51.8,91.9,51.2,91.4,50.7z M65.9,11.5
	c-1-1-2.6-1-3.5,0s-1,2.6,0,3.5c1,1,2.6,1,3.5,0c0.5-0.5,0.7-1.1,0.7-1.8C66.6,12.6,66.4,12,65.9,11.5z M79.1,50h-15
	c-1.4,0-2.5,1.1-2.5,2.5s1.1,2.5,2.5,2.5h15c1.4,0,2.5-1.1,2.5-2.5S80.5,50,79.1,50z M100.2,65H64.1c-1.4,0-2.5,1.1-2.5,2.5
	s1.1,2.5,2.5,2.5h36.1c1.4,0,2.5-1.1,2.5-2.5S101.6,65,100.2,65z M91.4,77.7c-1-1-2.6-1-3.5,0c-1,1-1,2.6,0,3.5c1,1,2.6,1,3.5,0
	c0.5-0.5,0.7-1.1,0.7-1.8C92.2,78.8,91.9,78.2,91.4,77.7z M79.1,77h-15c-1.4,0-2.5,1.1-2.5,2.5s1.1,2.5,2.5,2.5h15
	c1.4,0,2.5-1.1,2.5-2.5S80.5,77,79.1,77z M100.2,92H64.1c-1.4,0-2.5,1.1-2.5,2.5s1.1,2.5,2.5,2.5h36.1c1.4,0,2.5-1.1,2.5-2.5
	S101.6,92,100.2,92z M91.4,104.7c-1-1-2.6-1-3.5,0c-1,1-1,2.6,0,3.5c1,1,2.6,1,3.5,0c0.5-0.5,0.7-1.1,0.7-1.8
	C92.2,105.8,91.9,105.2,91.4,104.7L91.4,104.7z M79.1,104h-15c-1.4,0-2.5,1.1-2.5,2.5s1.1,2.5,2.5,2.5h15c1.4,0,2.5-1.1,2.5-2.5
	S80.5,104,79.1,104z M105,9.8H85.9C83,7,79.2,5.5,75.3,5.5h-2.2c-2.5-4.9-8.5-6.9-13.5-4.4c-1.9,1-3.5,2.5-4.4,4.4H53
	c-4,0-7.8,1.5-10.6,4.2H23.2C16.5,9.7,11,15.2,11,21.9v93.9c0,6.7,5.5,12.2,12.2,12.2H105c6.7,0,12.2-5.5,12.2-12.2V21.9
	C117.2,15.2,111.8,9.7,105,9.8z M53,10.5h3.9c1.1,0,2.1-0.7,2.4-1.8C60,6,62.8,4.4,65.5,5.2c1.7,0.5,3,1.8,3.5,3.5
	c0.3,1.1,1.3,1.8,2.4,1.8h3.9c5.4,0,9.9,4.1,10.4,9.5h-43C43.1,14.6,47.6,10.5,53,10.5z M112.2,115.8c0,4-3.2,7.2-7.2,7.2H23.2
	c-4,0-7.2-3.2-7.2-7.2V21.9c0-4,3.2-7.2,7.2-7.2h15.6c-0.8,1.9-1.3,4-1.3,6.1v1.6c0,1.4,1.1,2.5,2.5,2.5c0,0,0,0,0,0h48.1
	c1.4,0,2.5-1.1,2.5-2.5c0,0,0,0,0,0v-1.6c0-2.1-0.4-4.2-1.3-6.1H105c4,0,7.2,3.2,7.2,7.2L112.2,115.8L112.2,115.8z M48.2,37.4
	c-1-1-2.6-1-3.5,0L33.9,48.1l-3.3-3.3c-1-1-2.6-1-3.5,0c-1,1-1,2.6,0,3.5l5.1,5.1c1,1,2.6,1,3.5,0l12.5-12.5
	C49.2,40,49.2,38.4,48.2,37.4z M42.1,92H30c-1.4,0-2.5,1.1-2.5,2.5c0,0,0,0,0,0v12c0,1.4,1.1,2.5,2.5,2.5c0,0,0,0,0,0h12
	c1.4,0,2.5-1.1,2.5-2.5c0,0,0,0,0,0v-12C44.6,93.1,43.5,92,42.1,92C42.1,92,42.1,92,42.1,92z M39.6,104h-7v-7h7L39.6,104L39.6,104z
	 M42.1,65H30c-1.4,0-2.5,1.1-2.5,2.5c0,0,0,0,0,0v12c0,1.4,1.1,2.5,2.5,2.5c0,0,0,0,0,0h12c1.4,0,2.5-1.1,2.5-2.5c0,0,0,0,0,0v-12
	C44.6,66.1,43.5,65,42.1,65C42.1,65,42.1,65,42.1,65z M39.6,77h-7v-7h7V77z"/>
</svg>
