<?xml version="1.0" encoding="utf-8"?>
<!-- Generator: Adobe Illustrator 21.1.0, SVG Export Plug-In . SVG Version: 6.00 Build 0)  -->
<svg version="1.0" id="Layer_1" xmlns="http://www.w3.org/2000/svg" xmlns:xlink="http://www.w3.org/1999/xlink" x="0px" y="0px"
	 viewBox="0 0 32 32" style="enable-background:new 0 0 32 32;" xml:space="preserve">
<style type="text/css">
	.st0{fill:#6B7A9A;}
</style>
<path id="Forma_1" class="st0" d="M31.6,14.3L18.6,1c0,0,0,0-0.1,0c-1.4-1.3-3.6-1.3-5,0l0,0.1L0.4,14.3c-0.5,0.5-0.5,1.3,0,1.8
	c0.5,0.5,1.3,0.5,1.8,0c0,0,0,0,0,0l1-1v10.9c0,2.8,2.2,5,5,5.1h4.5c0.7,0,1.3-0.6,1.2-1.3c0,0,0,0,0,0V19.4h4.4v10.3
	c0,0.7,0.5,1.3,1.2,1.3h4.4c2.8,0,5-2.3,5-5.1c0-0.7-0.6-1.2-1.2-1.2s-1.2,0.6-1.2,1.2l0,0c0,1.4-1.1,2.5-2.5,2.5h-3.1V18.2
	c0-0.7-0.6-1.3-1.2-1.3c0,0,0,0,0,0h-6.9c-0.7,0-1.3,0.6-1.2,1.3c0,0,0,0,0,0v10.3H8.1c-1.4,0-2.5-1.1-2.5-2.5V12.6c0,0,0,0,0,0
	l9.6-9.7c0.5-0.4,1.2-0.4,1.6,0l9.5,9.7v7.1c0,0.7,0.6,1.2,1.2,1.2s1.2-0.6,1.2-1.2V15l1,1c0.5,0.5,1.3,0.5,1.8,0c0,0,0,0,0,0
	C32.1,15.5,32.1,14.8,31.6,14.3z"/>
</svg>
