<?xml version="1.0" encoding="utf-8"?>
<!-- Generator: Adobe Illustrator 21.1.0, SVG Export Plug-In . SVG Version: 6.00 Build 0)  -->
<svg version="1.0" id="Layer_1" xmlns="http://www.w3.org/2000/svg" xmlns:xlink="http://www.w3.org/1999/xlink" x="0px" y="0px"
	 viewBox="0 0 32 32" style="enable-background:new 0 0 32 32;" xml:space="preserve">
<style type="text/css">
	.st0{fill:#8793AD;}
</style>
<path class="st0" d="M30.4,12.6l-2.2-0.4c-0.2-0.8-0.5-1.5-0.9-2.2l1.3-1.9c0.6-0.8,0.5-1.9-0.2-2.5l-2-2c-0.4-0.4-0.9-0.6-1.4-0.6
	c-0.4,0-0.8,0.1-1.1,0.4l-1.9,1.3c-0.7-0.4-1.5-0.7-2.3-0.9l-0.4-2.2c-0.2-1-1-1.7-2-1.7h-2.8c-1,0-1.8,0.7-2,1.7l-0.4,2.3
	c-0.8,0.2-1.5,0.5-2.2,0.9L8.2,3.5C7.4,3,6.3,3,5.6,3.7l-2,2C3,6.4,2.9,7.5,3.4,8.3l1.3,1.9c-0.4,0.7-0.7,1.4-0.9,2.2l-2.2,0.4
	c-1,0.2-1.7,1-1.7,2v2.8c0,1,0.7,1.8,1.7,2l2.3,0.4c0.2,0.8,0.5,1.5,0.9,2.2l-1.3,1.8c-0.6,0.8-0.5,1.9,0.2,2.5l2,2
	c0.4,0.4,0.9,0.6,1.4,0.6c0.4,0,0.8-0.1,1.1-0.4l1.9-1.3c0.7,0.4,1.4,0.6,2.1,0.9l0.4,2.2c0.2,1,1,1.7,1.9,1.7h2.8
	c1,0,1.8-0.7,2-1.7l0.4-2.2c0.8-0.2,1.5-0.5,2.2-0.9l1.9,1.3c0.3,0.2,0.7,0.4,1.1,0.4l0,0c0.5,0,1-0.2,1.4-0.6l2-2
	c0.7-0.7,0.8-1.8,0.2-2.5l-1.3-1.9c0.4-0.7,0.7-1.4,0.9-2.2l2.2-0.4c1-0.2,1.7-1,1.7-2v-2.8C32,13.6,31.3,12.8,30.4,12.6z
	 M30.2,17.4c0,0.1-0.1,0.2-0.1,0.2L27.3,18c-0.4,0.1-0.6,0.3-0.7,0.7c-0.3,1-0.6,1.9-1.2,2.8c-0.2,0.3-0.2,0.7,0,1l1.7,2.3
	c0,0.1,0,0.2,0,0.2l-2,2c0,0-0.1,0.1-0.1,0.1c0,0-0.1,0-0.1,0l-2.3-1.6c-0.3-0.2-0.7-0.2-1,0c-0.9,0.5-1.8,0.9-2.8,1.2
	c-0.3,0.1-0.6,0.4-0.7,0.7l-0.5,2.8c0,0.1-0.1,0.1-0.2,0.1h-2.8c-0.1,0-0.2-0.1-0.2-0.1L14,27.3c-0.1-0.4-0.3-0.6-0.7-0.7
	c-1-0.3-1.9-0.6-2.7-1.1c-0.1-0.1-0.3-0.1-0.5-0.1c-0.2,0-0.4,0.1-0.5,0.2l-2.3,1.7c0,0-0.1,0-0.1,0c0,0-0.1,0-0.1-0.1l-2-2
	C5,25,4.9,25,5,24.9l1.6-2.3c0.2-0.3,0.2-0.7,0-1c-0.5-0.9-0.9-1.8-1.2-2.8c-0.1-0.3-0.4-0.6-0.7-0.7l-2.8-0.5
	c-0.1,0-0.2-0.1-0.1-0.2v-2.8c0-0.1,0.1-0.2,0.1-0.2L4.7,14c0.4-0.1,0.6-0.3,0.7-0.7c0.2-1,0.6-1.9,1.1-2.8c0.2-0.3,0.2-0.7,0-1
	L4.9,7.2c0-0.1,0-0.2,0-0.2l2-2C6.9,5,7,5,7,5c0,0,0.1,0,0.1,0l2.3,1.6c0.3,0.2,0.7,0.2,1,0c0.9-0.5,1.8-0.9,2.8-1.2
	c0.3-0.1,0.6-0.4,0.7-0.7l0.5-2.8c0-0.1,0.1-0.1,0.2-0.1h2.8c0.1,0,0.2,0.1,0.2,0.1L18,4.7c0.1,0.4,0.3,0.6,0.7,0.7
	c1,0.3,2,0.6,2.9,1.2c0.3,0.2,0.7,0.2,1,0l2.3-1.7c0,0,0.1,0,0.1,0c0,0,0.1,0,0.1,0.1l2,2c0.1,0.1,0.1,0.2,0,0.2l-1.7,2.3
	c-0.2,0.3-0.2,0.7,0,1c0.5,0.9,0.9,1.8,1.2,2.8c0.1,0.3,0.4,0.6,0.7,0.7l2.8,0.5c0.1,0,0.1,0.1,0.1,0.2L30.2,17.4L30.2,17.4
	L30.2,17.4z M16,9.1c-3.8,0-6.9,3.1-6.9,6.9c0,3.8,3.1,6.9,6.9,6.9c3.8,0,6.9-3.1,6.9-6.9C22.9,12.2,19.8,9.1,16,9.1z M16,21.1
	c-2.8,0-5.1-2.3-5.1-5.1s2.3-5.1,5.1-5.1c2.8,0,5.1,2.3,5.1,5.1S18.8,21.1,16,21.1C16,21.1,16,21.1,16,21.1z"/>
</svg>
