<?xml version="1.0" encoding="utf-8"?>
<!-- Generator: Adobe Illustrator 21.1.0, SVG Export Plug-In . SVG Version: 6.00 Build 0)  -->
<svg version="1.0" id="Layer_1" xmlns="http://www.w3.org/2000/svg" xmlns:xlink="http://www.w3.org/1999/xlink" x="0px" y="0px"
	 viewBox="0 0 32 32" style="enable-background:new 0 0 32 32;" xml:space="preserve">
<style type="text/css">
	.st0{fill:#6B7A9A;}
</style>
<path id="Forma_1" class="st0" d="M31.7,7.3c-0.2-0.3-0.6-0.5-1-0.5H8.1L8,6v0C7.6,2.5,4.7,0,1.2,0C0.6,0,0,0.6,0,1.2
	s0.6,1.2,1.2,1.2c2.2,0,4,1.6,4.3,3.7L7,19.9c-1.3,0.6-2.2,1.9-2.2,3.4c0,0,0,0,0,0s0,0,0,0c0,2.1,1.7,3.7,3.7,3.8h0.5
	c-0.7,1.9,0.4,4,2.3,4.7s4-0.4,4.7-2.3c0.3-0.8,0.3-1.6,0-2.4h5.4c-0.7,1.9,0.4,4,2.3,4.7c1.9,0.7,4-0.4,4.7-2.3s-0.4-4-2.3-4.7
	c-0.4-0.1-0.8-0.2-1.2-0.2H8.6c-0.7,0-1.2-0.6-1.2-1.2c0,0,0,0,0,0s0,0,0,0c0-0.7,0.6-1.2,1.2-1.2h16c2.3,0,4.3-1.4,5.2-3.5
	c0.3-0.6,0-1.4-0.6-1.7c-0.6-0.3-1.4,0-1.7,0.6c0,0,0,0.1,0,0.1c-0.5,1.2-1.6,2-2.9,2h-15L8.4,9.3h20.8l-0.6,2.9
	c-0.2,0.7,0.3,1.3,0.9,1.5c0.7,0.2,1.3-0.3,1.5-0.9c0,0,0,0,0,0L32,8.3C32,7.9,32,7.6,31.7,7.3z M24.9,27.1c0.7,0,1.2,0.5,1.2,1.2
	c0,0.7-0.5,1.2-1.2,1.2c-0.7,0-1.2-0.5-1.2-1.2c0,0,0,0,0,0C23.8,27.7,24.3,27.1,24.9,27.1z M12.6,27.1c0.7,0,1.2,0.5,1.2,1.2
	c0,0.7-0.5,1.2-1.2,1.2c-0.7,0-1.2-0.5-1.2-1.2c0,0,0,0,0,0C11.4,27.7,11.9,27.1,12.6,27.1z"/>
</svg>
