<?xml version="1.0" encoding="utf-8"?>
<!-- Generator: Adobe Illustrator 21.1.0, SVG Export Plug-In . SVG Version: 6.00 Build 0)  -->
<svg version="1.0" id="Layer_1" xmlns="http://www.w3.org/2000/svg" xmlns:xlink="http://www.w3.org/1999/xlink" x="0px" y="0px"
	 viewBox="0 0 32 32" style="enable-background:new 0 0 32 32;" xml:space="preserve">
<style type="text/css">
	.st0{fill:#3D4C6B;}
</style>
<path id="Forma_1" class="st0" d="M14.4,4.3c0-1.1,0.9-2.1,2.1-2.1s2.1,0.9,2.1,2.1v1.3h2.2V4.3c0-2.4-1.9-4.3-4.3-4.3
	c-2.4,0-4.3,1.9-4.3,4.3v0.6 M19.5,26.8c0,1.6-1.3,3-3,3h-0.1c-1.6,0-3-1.3-3-3h-2.2c0,2.9,2.3,5.2,5.2,5.2h0.1
	c2.9,0,5.2-2.3,5.2-5.2C21.7,26.8,19.5,26.8,19.5,26.8z M30.8,26.4l-3.1-4.9v-6.2C27.7,9.1,22.8,4.1,16.6,4C10.4,4,5.4,8.9,5.3,15.1
	c0,0.1,0,0.1,0,0.2v6.2l-3.1,4.9c-0.2,0.3-0.2,0.8,0,1.1c0.2,0.4,0.6,0.6,1,0.6h26.8c0.4,0,0.8-0.2,1-0.6
	C31.1,27.2,31,26.8,30.8,26.4L30.8,26.4z M5.1,25.9l2.2-3.4c0.1-0.2,0.2-0.4,0.2-0.6v-6.6c0-5,4-9,9-9c5,0,9,4,9,9c0,0,0,0,0,0v6.6
	c0,0.2,0.1,0.4,0.2,0.6l2.2,3.4L5.1,25.9L5.1,25.9z"/>
</svg>
