<?xml version="1.0" encoding="utf-8"?>
<!-- Generator: Adobe Illustrator 21.1.0, SVG Export Plug-In . SVG Version: 6.00 Build 0)  -->
<svg version="1.0" id="Layer_1" xmlns="http://www.w3.org/2000/svg" xmlns:xlink="http://www.w3.org/1999/xlink" x="0px" y="0px"
	 viewBox="0 0 128 128" style="enable-background:new 0 0 128 128;" xml:space="preserve">
<path id="Forma_1" d="M41.8,49.5c-1.4,0-2.5,1.1-2.5,2.5v31.5c0,1.4,1.1,2.5,2.5,2.5s2.5-1.1,2.5-2.5V52
	C44.3,50.6,43.2,49.5,41.8,49.5z M61.8,49.5c-1.4,0-2.5,1.1-2.5,2.5v31.5c0,1.4,1.1,2.5,2.5,2.5c1.4,0,2.5-1.1,2.5-2.5V52
	C64.3,50.6,63.2,49.5,61.8,49.5C61.8,49.5,61.8,49.5,61.8,49.5L61.8,49.5z M81.8,49.5c-1.4,0-2.5,1.1-2.5,2.5v31.5
	c0,1.4,1.1,2.5,2.5,2.5s2.5-1.1,2.5-2.5V52C84.3,50.6,83.2,49.5,81.8,49.5C81.8,49.5,81.8,49.5,81.8,49.5L81.8,49.5z M101.8,49.5
	c-1.4,0-2.5,1.1-2.5,2.5v31.5c0,1.4,1.1,2.5,2.5,2.5s2.5-1.1,2.5-2.5V52C104.3,50.6,103.2,49.5,101.8,49.5
	C101.8,49.5,101.8,49.5,101.8,49.5L101.8,49.5z M118,95l10-54.5c0.2-1.4-0.6-2.7-2-2.9c-0.1,0-0.3,0-0.5,0h-11V16
	c0-1.4-1.1-2.5-2.5-2.5H66.5v-11C66.5,1.1,65.4,0,64,0H38c-1.4,0-2.5,1.1-2.5,2.5v35H22.2l-3.8-21.9c-0.2-1.2-1.2-2.1-2.5-2.1H2.5
	C1.1,13.5,0,14.6,0,16v10c0,1.4,1.1,2.5,2.5,2.5h13.1L27,94.7V98c0,7.2,5.4,13.2,12.6,13.9c-3.1,4.9-1.6,11.4,3.3,14.5
	c4.9,3.1,11.4,1.6,14.5-3.3c2.1-3.4,2.1-7.7,0-11.1h30.2c-3,4.9-1.5,11.4,3.4,14.4c4.9,3,11.4,1.5,14.4-3.4c2.1-3.4,2.1-7.6,0-11h10
	c1.4,0,2.5-1.1,2.5-2.5s-1.1-2.5-2.5-2.5H41c-5,0-9-4-9-9v-1h83.5C116.7,97,117.7,96.2,118,95L118,95z M5,23.5v-5h8.9l0.9,5H5z
	 M96.5,112c3,0,5.5,2.5,5.5,5.5s-2.5,5.5-5.5,5.5s-5.5-2.5-5.5-5.5C91,114.5,93.5,112,96.5,112z M48.5,112c3,0,5.5,2.5,5.5,5.5
	s-2.5,5.5-5.5,5.5s-5.5-2.5-5.5-5.5C43,114.5,45.4,112,48.5,112z M66.5,28.5h21.7c1.4,0,2.5-1.1,2.5-2.5s-1.1-2.5-2.5-2.5H66.5v-5
	h43v19h-43V28.5z M40.5,5h21v32.5h-21V5z M113.4,92H31.6l-8.5-49.5h99.4L113.4,92z M102.8,24.2c-1-1-2.6-1-3.5,0c-1,1-1,2.6,0,3.5
	c1,1,2.6,1,3.5,0c0.5-0.5,0.7-1.1,0.7-1.8C103.5,25.3,103.3,24.7,102.8,24.2L102.8,24.2z"/>
</svg>
