<?xml version="1.0" encoding="utf-8"?>
<!-- Generator: Adobe Illustrator 21.1.0, SVG Export Plug-In . SVG Version: 6.00 Build 0)  -->
<svg version="1.0" id="Layer_1" xmlns="http://www.w3.org/2000/svg" xmlns:xlink="http://www.w3.org/1999/xlink" x="0px" y="0px"
	 viewBox="0 0 128 128" style="enable-background:new 0 0 128 128;" xml:space="preserve">
<path id="Forma_1" d="M100.5,96.5c-1.4,0-2.5,1.1-2.5,2.5s1.1,2.5,2.5,2.5s2.5-1.1,2.5-2.5C103,97.6,101.9,96.5,100.5,96.5
	C100.5,96.5,100.5,96.5,100.5,96.5z M123,46.9V2.5c0-1.4-1.1-2.5-2.5-2.5h-93C26.1,0,25,1.1,25,2.5V10h-7.5c-1.4,0-2.5,1.1-2.5,2.5
	V20H7.5C6.1,20,5,21.1,5,22.5v24.4C2,48,0,50.8,0,54v66.5c0,4.1,3.4,7.5,7.5,7.5h113c4.1,0,7.5-3.4,7.5-7.5V54
	C128,50.8,126,48,123,46.9z M30,5h88v41.5h-5v-34c0-1.4-1.1-2.5-2.5-2.5H30V5z M20,15h88v31.5h-5v-24c0-1.4-1.1-2.5-2.5-2.5H20V15z
	 M10,25h88v21.5H61.5V44c0-4.1-3.4-7.5-7.5-7.5H22.5c-4.1,0-7.5,3.4-7.5,7.5v2.5h-5V25z M123,120.5c0,1.4-1.1,2.5-2.5,2.5H7.5
	c-1.4,0-2.5-1.1-2.5-2.5V54c0-1.4,1.1-2.5,2.5-2.5h10c1.4,0,2.5-1.1,2.5-2.5v-5c0-1.4,1.1-2.5,2.5-2.5H54c1.4,0,2.5,1.1,2.5,2.5v5
	c0,1.4,1.1,2.5,2.5,2.5h61.5c1.4,0,2.5,1.1,2.5,2.5V120.5z M110.5,86.5H54c-1.4,0-2.5,1.1-2.5,2.5v20c0,1.4,1.1,2.5,2.5,2.5h56.5
	c1.4,0,2.5-1.1,2.5-2.5V89C113,87.6,111.9,86.5,110.5,86.5z M108,106.5H56.5v-15H108V106.5z M90.5,96.5H64c-1.4,0-2.5,1.1-2.5,2.5
	s1.1,2.5,2.5,2.5h26.5c1.4,0,2.5-1.1,2.5-2.5S91.9,96.5,90.5,96.5z"/>
</svg>
