<?xml version="1.0" encoding="utf-8"?>
<!-- Generator: Adobe Illustrator 21.1.0, SVG Export Plug-In . SVG Version: 6.00 Build 0)  -->
<svg version="1.0" id="Layer_1" xmlns="http://www.w3.org/2000/svg" xmlns:xlink="http://www.w3.org/1999/xlink" x="0px" y="0px"
	 viewBox="0 0 32 32" style="enable-background:new 0 0 32 32;" xml:space="preserve">
<style type="text/css">
	.st0{fill:#657494;}
</style>
<path id="Forma_1" class="st0" d="M27.4,0H4.6C2.1,0,0,2.1,0,4.6s2.1,4.6,4.6,4.6h22.8c2.6,0,4.6-2.1,4.6-4.6S29.9,0,27.4,0z
	 M27.4,6.8H4.6c-1.2,0-2.1-1-2.1-2.1s1-2.1,2.1-2.1h22.8c1.2,0,2.1,1,2.1,2.1S28.5,6.8,27.4,6.8z M27.4,11.4H4.6
	C2.1,11.4,0,13.4,0,16s2.1,4.6,4.6,4.6h22.8c2.6,0,4.6-2.1,4.6-4.6S29.9,11.4,27.4,11.4z M27.4,18.1H4.6c-1.2,0-2.1-1-2.1-2.1
	s1-2.1,2.1-2.1h22.8c1.2,0,2.1,1,2.1,2.1S28.5,18.1,27.4,18.1z M27.4,22.8H4.6c-2.6,0-4.6,2.1-4.6,4.6S2.1,32,4.6,32h16.5
	c0.7,0,1.2-0.6,1.2-1.2s-0.6-1.2-1.2-1.2H4.6c-1.2,0-2.1-1-2.1-2.1s1-2.1,2.1-2.1h22.8c1.2,0,2.1,1,2.1,2.1s-1,2.1-2.1,2.1
	c-0.7,0-1.2,0.6-1.2,1.2s0.6,1.2,1.2,1.2c2.6,0,4.6-2.1,4.6-4.6S29.9,22.8,27.4,22.8z"/>
</svg>
