<?xml version="1.0" encoding="utf-8"?>
<!-- Generator: Adobe Illustrator 21.1.0, SVG Export Plug-In . SVG Version: 6.00 Build 0)  -->
<svg version="1.0" id="Layer_1" xmlns="http://www.w3.org/2000/svg" xmlns:xlink="http://www.w3.org/1999/xlink" x="0px" y="0px"
	 viewBox="0 0 32 32" style="enable-background:new 0 0 32 32;" xml:space="preserve">
<style type="text/css">
	.st0{fill:#3C8EF7;}
</style>
<path id="Forma_1" class="st0" d="M31.9,1.6C31.8,1.2,31.4,1,31,1H1C0.6,1,0.3,1.2,0.1,1.6c-0.2,0.3-0.1,0.8,0.1,1l11.6,14.3V30
	c0,0.3,0.2,0.7,0.5,0.8c0.3,0.2,0.6,0.2,0.9,0l6.5-3.3c0.3-0.2,0.5-0.5,0.5-0.9l0-9.9L31.8,2.6C32,2.3,32.1,1.9,31.9,1.6z
	 M18.5,15.9c-0.1,0.2-0.2,0.4-0.2,0.6l0,9.6l-4.6,2.3V16.5c0-0.2-0.1-0.5-0.2-0.6L3,3H29L18.5,15.9z"/>
</svg>
