<?xml version="1.0" encoding="utf-8"?>
<!-- Generator: Adobe Illustrator 21.1.0, SVG Export Plug-In . SVG Version: 6.00 Build 0)  -->
<svg version="1.0" id="Layer_1" xmlns="http://www.w3.org/2000/svg" xmlns:xlink="http://www.w3.org/1999/xlink" x="0px" y="0px"
	 viewBox="0 0 32 32" style="enable-background:new 0 0 32 32;" xml:space="preserve">
<style type="text/css">
	.st0{fill:#6B7A9A;}
</style>
<path id="Forma_1" class="st0" d="M28.6,0c-1.2,0-2.4,0.3-3.5,0.7C23,1.5,21.3,3,20.4,5l-5.5-0.6c-1.5-0.2-3,0.4-4,1.4l-9.4,9.4
	c-1.9,2-1.9,5.1,0,7.1l8.2,8.2c0.9,0.9,2.2,1.5,3.6,1.5c1.3,0,2.6-0.5,3.5-1.4c0.5-0.5,0.5-1.3,0-1.8c-0.5-0.5-1.3-0.5-1.8,0
	c0,0,0,0,0,0c-1,1-2.6,1-3.5,0c0,0,0,0,0,0l-8.2-8.2c-1-1-1-2.6,0-3.5l9.4-9.4c0.5-0.5,1.3-0.8,2-0.7L21,7.6l0.1,0l3.1,0.3l0.2,1.9
	c-1.4,0.5-2.9,0.8-4.4,1c-0.7,0-1.2,0.6-1.2,1.3c0,0.7,0.6,1.2,1.3,1.2h0.1c1.5-0.1,3-0.4,4.5-0.9l0.5,5c0.1,0.7-0.2,1.5-0.7,2
	l-4.8,4.7c-0.5,0.5-0.5,1.3,0,1.8c0.5,0.5,1.3,0.5,1.7,0l4.8-4.7l0,0c1.1-1.1,1.6-2.5,1.4-4L27,11.3c3.1-1.4,5-4.5,5-7.8V3.4
	C32,1.5,30.5,0,28.6,0z M29.5,3.5L29.5,3.5c0,2.1-1,4-2.7,5.1l-0.2-2C26.5,6,26,5.6,25.4,5.5l-2.4-0.2c0.7-1,1.7-1.8,2.8-2.2
	c0.8-0.3,1.7-0.5,2.7-0.6C29.1,2.5,29.5,2.9,29.5,3.5L29.5,3.5z"/>
</svg>
