<?xml version="1.0" encoding="utf-8"?>
<!-- Generator: Adobe Illustrator 21.1.0, SVG Export Plug-In . SVG Version: 6.00 Build 0)  -->
<svg version="1.0" id="Layer_1" xmlns="http://www.w3.org/2000/svg" xmlns:xlink="http://www.w3.org/1999/xlink" x="0px" y="0px"
	 viewBox="0 0 32 32" style="enable-background:new 0 0 32 32;" xml:space="preserve">
<style type="text/css">
	.st0{fill:#6B7A9A;}
</style>
<path id="Forma_1" class="st0" d="M23.5,28.6c-0.3-0.6-1.1-0.8-1.7-0.5c0,0,0,0,0,0c-5.3,2.9-12,1-14.9-4.4
	c-0.9-1.6-1.3-3.4-1.3-5.3c0-0.7-0.6-1.2-1.2-1.2S3,17.8,3,18.5C3,26,9,32,16.5,32c2.3,0,4.5-0.6,6.5-1.7
	C23.6,30,23.8,29.3,23.5,28.6z M26,8.9c-2.5-2.5-6-4-9.5-3.9h-4.6l2.8-2.9c0.5-0.5,0.5-1.3,0-1.8s-1.3-0.5-1.8,0c0,0,0,0,0,0
	L9.8,3.6c-1.4,1.5-1.4,3.8,0,5.3l3.2,3.2c0.5,0.5,1.3,0.5,1.8,0s0.5-1.3,0-1.8c0,0,0,0,0,0l-2.8-2.9h4.6c6.1,0,11,4.9,11,11
	c0,1.9-0.5,3.8-1.4,5.4c-0.4,0.6-0.2,1.4,0.4,1.7c0.6,0.4,1.4,0.2,1.7-0.4c0,0,0,0,0-0.1C31.2,19.9,30.3,13.2,26,8.9L26,8.9z"/>
</svg>
