<?xml version="1.0" encoding="utf-8"?>
<!-- Generator: Adobe Illustrator 21.1.0, SVG Export Plug-In . SVG Version: 6.00 Build 0)  -->
<svg version="1.0" id="Layer_1" xmlns="http://www.w3.org/2000/svg" xmlns:xlink="http://www.w3.org/1999/xlink" x="0px" y="0px"
	 viewBox="0 0 32 32" style="enable-background:new 0 0 32 32;" xml:space="preserve">
<style type="text/css">
	.st0{fill:#6B7A9A;}
</style>
<path id="Forma_1" class="st0" d="M31.9,9.5L29.1,3c-0.8-1.8-2.6-3-4.6-3h-17c-2,0-3.8,1.2-4.6,3L0.1,9.5C0,9.7,0,9.9,0,10v1.6
	c0,1.7,1,3.2,2.5,3.8V27c0,2.8,2.2,5,5,5h17c2.8,0,5-2.2,5-5c0-0.7-0.6-1.2-1.2-1.2S27,26.3,27,27c0,1.4-1.1,2.5-2.5,2.5h-17
	C6.1,29.5,5,28.4,5,27V15.8c0.8-0.2,1.5-0.6,2.1-1.1c0.1,0.1,0.2,0.2,0.4,0.3v8.1c0,0.7,0.6,1.2,1.2,1.2h14.5c0.7,0,1.2-0.6,1.2-1.2
	V15c0.1-0.1,0.3-0.2,0.4-0.3c0.6,0.6,1.3,1,2.1,1.1v5c0,0.7,0.6,1.2,1.2,1.2s1.2-0.6,1.2-1.2v-5.3c1.5-0.7,2.5-2.2,2.5-3.8V10
	C32,9.9,32,9.7,31.9,9.5z M5.9,11.7c0,0.9-0.8,1.7-1.7,1.6c-0.9,0-1.6-0.7-1.6-1.6v-0.4h3.4V11.7z M8.4,11.7v-0.4h3.4v0.4
	c0,0.9-0.8,1.7-1.7,1.6C9.1,13.3,8.4,12.6,8.4,11.7z M22,21.8H10v-6h0.1c1.1,0,2.2-0.4,3-1.2c1.7,1.6,4.3,1.6,6,0
	c0.8,0.8,1.8,1.2,3,1.2H22L22,21.8L22,21.8z M14.2,11.6v-0.4h3.5v0.4c0,1-0.8,1.8-1.8,1.8S14.2,12.6,14.2,11.6z M23.6,11.7
	c0,0.9-0.8,1.7-1.7,1.6c-0.9,0-1.6-0.7-1.6-1.6v-0.4h3.4V11.7L23.6,11.7z M3.2,8.8l2-4.7c0.4-0.9,1.3-1.5,2.3-1.5h17
	c1,0,1.9,0.6,2.3,1.5l2,4.7H3.2z M29.5,11.7c0,0.9-0.8,1.7-1.7,1.6c-0.9,0-1.6-0.7-1.6-1.6v-0.4h3.4V11.7z"/>
</svg>
